<svg width="80" height="39" viewBox="0 0 80 39" version="1.1" xmlns="http://www.w3.org/2000/svg" xmlns:xlink="http://www.w3.org/1999/xlink" xmlns:figma="http://www.figma.com/figma/ns">
<title>all</title>
<desc>Created using Figma</desc>
<g id="Canvas" transform="translate(1006 -783)" figma:type="canvas">
<g id="all" style="mix-blend-mode:normal;" figma:type="frame">
<g id="ic_view_module_white_24px" style="mix-blend-mode:normal;isolation:isolate;" figma:type="frame">
<g id="Vector" style="mix-blend-mode:normal;" figma:type="vector">
<use xlink:href="#path0_fill" transform="translate(-978.132 783.237)" fill="#7F7FBA" style="mix-blend-mode:normal;"/>
</g>
</g>
<g id="All projects" style="mix-blend-mode:normal;isolation:isolate;" figma:type="text">
<use xlink:href="#path1_fill" transform="translate(-1005.25 808.763)" fill="#7F7FBA" style="mix-blend-mode:normal;"/>
</g>
</g>
</g>
<defs>
<path id="path0_fill" d="M 0 8.47059L 7.05882 8.47059L 7.05882 0L 0 0L 0 8.47059ZM 0 18.3529L 7.05882 18.3529L 7.05882 9.88235L 0 9.88235L 0 18.3529ZM 8.47059 18.3529L 15.5294 18.3529L 15.5294 9.88235L 8.47059 9.88235L 8.47059 18.3529ZM 16.9412 18.3529L 24 18.3529L 24 9.88235L 16.9412 9.88235L 16.9412 18.3529ZM 8.47059 8.47059L 15.5294 8.47059L 15.5294 0L 8.47059 0L 8.47059 8.47059ZM 16.9412 0L 16.9412 8.47059L 24 8.47059L 24 0L 16.9412 0Z"/>
<path id="path1_fill" d="M 2.65332 1.98096L 3.96924 1.98096L 6.42383 10L 5.30127 10L 4.71045 7.91064L 1.90137 7.91064L 1.32129 10L 0.19873 10L 2.65332 1.98096ZM 4.45264 7.04053L 3.30859 2.93701L 2.16455 7.04053L 4.45264 7.04053ZM 11.0376 10.043C 10.7511 10.043 10.4933 9.99821 10.2642 9.90869C 10.0386 9.81917 9.83984 9.67415 9.66797 9.47363C 9.34212 9.09408 9.1792 8.55697 9.1792 7.8623L 9.1792 2.41602L 7.59473 2.41602L 7.59473 1.64258L 10.1675 1.64258L 10.1675 7.8623C 10.1675 8.3099 10.2498 8.64469 10.4146 8.8667C 10.5005 8.98486 10.6025 9.0708 10.7207 9.12451C 10.8424 9.17822 10.9803 9.20508 11.1343 9.20508L 12.2891 9.20508L 12.2891 10.043L 11.0376 10.043ZM 17.6655 10.043C 17.3791 10.043 17.1213 9.99821 16.8921 9.90869C 16.6665 9.81917 16.4678 9.67415 16.2959 9.47363C 15.9701 9.09408 15.8071 8.55697 15.8071 7.8623L 15.8071 2.41602L 14.2227 2.41602L 14.2227 1.64258L 16.7954 1.64258L 16.7954 7.8623C 16.7954 8.3099 16.8778 8.64469 17.0425 8.8667C 17.1284 8.98486 17.2305 9.0708 17.3486 9.12451C 17.4704 9.17822 17.6082 9.20508 17.7622 9.20508L 18.917 9.20508L 18.917 10.043L 17.6655 10.043ZM 27.5322 3.98438L 28.4292 3.98438L 28.5259 4.75244C 28.6942 4.45166 28.9144 4.22428 29.1865 4.07031C 29.4587 3.91634 29.7756 3.83936 30.1372 3.83936C 30.4953 3.83936 30.8175 3.90918 31.104 4.04883C 31.3905 4.18848 31.6375 4.39974 31.8452 4.68262C 32.0529 4.96549 32.2069 5.30208 32.3071 5.69238C 32.411 6.0791 32.4629 6.51774 32.4629 7.0083C 32.4629 7.993 32.2552 8.76286 31.8398 9.31787C 31.4245 9.87646 30.8551 10.1558 30.1318 10.1558C 29.9277 10.1558 29.7505 10.1343 29.6001 10.0913C 29.4497 10.0519 29.3083 9.99463 29.1758 9.91943C 28.8965 9.7583 28.6799 9.53271 28.5259 9.24268L 28.5259 12.2881L 27.5322 12.2881L 27.5322 3.98438ZM 29.9868 9.31787C 30.4666 9.31787 30.8265 9.12272 31.0664 8.73242C 31.3063 8.34212 31.4263 7.76383 31.4263 6.99756C 31.4263 6.23128 31.3063 5.65299 31.0664 5.2627C 30.8265 4.8724 30.4666 4.67725 29.9868 4.67725C 29.507 4.67725 29.1436 4.8724 28.8965 5.2627C 28.6494 5.65658 28.5259 6.23486 28.5259 6.99756C 28.5259 7.76025 28.6494 8.33675 28.8965 8.72705C 29.1436 9.12093 29.507 9.31787 29.9868 9.31787ZM 34.7617 3.98438L 35.6587 3.98438L 35.7554 5.16064C 35.9237 4.73454 36.1779 4.4069 36.5181 4.17773C 36.8547 3.95215 37.2575 3.83936 37.7266 3.83936C 37.9701 3.83936 38.1992 3.86979 38.4141 3.93066C 38.5179 3.95931 38.6217 3.9987 38.7256 4.04883C 38.8294 4.09538 38.9279 4.15088 39.021 4.21533L 39.021 5.2251C 38.8169 5.06038 38.6021 4.94043 38.3765 4.86523C 38.1545 4.79004 37.9128 4.75244 37.6514 4.75244C 37.0391 4.75244 36.57 4.9458 36.2441 5.33252C 35.9183 5.71566 35.7554 6.27425 35.7554 7.0083L 35.7554 10L 34.7617 10L 34.7617 3.98438ZM 43.0762 10.1558C 42.6644 10.1558 42.2974 10.0895 41.9751 9.95703C 41.6564 9.82096 41.3861 9.61865 41.1641 9.3501C 40.9385 9.0708 40.772 8.73421 40.6646 8.34033C 40.5571 7.94287 40.5034 7.49349 40.5034 6.99219C 40.5034 5.97526 40.7236 5.19466 41.1641 4.65039C 41.6045 4.1097 42.2419 3.83936 43.0762 3.83936C 43.5059 3.83936 43.8783 3.90918 44.1934 4.04883C 44.512 4.1849 44.7788 4.38542 44.9937 4.65039C 45.4341 5.19466 45.6543 5.97347 45.6543 6.98682C 45.6543 7.49886 45.5988 7.95361 45.4878 8.35107C 45.3804 8.74854 45.2157 9.08154 44.9937 9.3501C 44.7788 9.61507 44.5103 9.81559 44.188 9.95166C 43.8693 10.0877 43.4987 10.1558 43.0762 10.1558ZM 43.0762 9.31787C 43.5811 9.31787 43.9624 9.12093 44.2202 8.72705C 44.478 8.33675 44.6069 7.76025 44.6069 6.99756C 44.6069 6.23486 44.478 5.65658 44.2202 5.2627C 43.9624 4.8724 43.5811 4.67725 43.0762 4.67725C 42.5749 4.67725 42.1953 4.8724 41.9375 5.2627C 41.6797 5.65658 41.5508 6.23486 41.5508 6.99756C 41.5508 7.76025 41.6797 8.33675 41.9375 8.72705C 42.1953 9.12093 42.5749 9.31787 43.0762 9.31787ZM 49.8975 2.89404C 49.79 2.89404 49.7363 2.84033 49.7363 2.73291L 49.7363 1.80371C 49.7363 1.69629 49.79 1.64258 49.8975 1.64258L 50.6709 1.64258C 50.7783 1.64258 50.832 1.69629 50.832 1.80371L 50.832 2.73291C 50.832 2.84033 50.7783 2.89404 50.6709 2.89404L 49.8975 2.89404ZM 47.6738 11.4502L 48.9307 11.4502C 49.2529 11.4502 49.4946 11.3392 49.6558 11.1172C 49.8169 10.8916 49.8975 10.555 49.8975 10.1074L 49.8975 4.75244L 48.1948 4.75244L 48.1948 3.98438L 50.8857 3.98438L 50.8857 10.1074C 50.8857 10.4476 50.8464 10.7537 50.7676 11.0259C 50.6888 11.298 50.5688 11.5308 50.4077 11.7241C 50.2466 11.9175 50.0496 12.0589 49.8169 12.1484C 49.5877 12.2415 49.3281 12.2881 49.0381 12.2881L 47.6738 12.2881L 47.6738 11.4502ZM 56.6597 10.1558C 56.1978 10.1558 55.7824 10.0859 55.4136 9.94629C 55.0483 9.80306 54.7368 9.59359 54.479 9.31787C 54.2212 9.04215 54.0243 8.71094 53.8882 8.32422C 53.7557 7.93392 53.6895 7.49349 53.6895 7.00293C 53.6895 6.49805 53.7575 6.05583 53.8936 5.67627C 54.0296 5.29313 54.2176 4.96729 54.4575 4.69873C 54.7189 4.40869 55.0251 4.19385 55.376 4.0542C 55.7269 3.91097 56.1047 3.83936 56.5093 3.83936C 56.9103 3.83936 57.2612 3.9056 57.562 4.03809C 57.8664 4.17057 58.126 4.36214 58.3408 4.61279C 58.5557 4.86344 58.7186 5.16781 58.8296 5.52588C 58.9442 5.88037 59.0015 6.28678 59.0015 6.74512L 59.0015 7.22852L 54.7207 7.22852L 54.7207 7.26074C 54.7207 7.91602 54.8926 8.42269 55.2363 8.78076C 55.401 8.95264 55.5998 9.08512 55.8325 9.17822C 56.0688 9.27132 56.3499 9.31787 56.6758 9.31787C 57.0016 9.31787 57.3328 9.26774 57.6694 9.16748C 58.0168 9.06364 58.3838 8.91146 58.7705 8.71094L 58.7705 9.69385C 58.5807 9.77262 58.3963 9.84066 58.2173 9.89795C 58.0382 9.95524 57.861 10.0036 57.6855 10.043C 57.5137 10.0824 57.3418 10.111 57.1699 10.1289C 56.998 10.1468 56.828 10.1558 56.6597 10.1558ZM 58.0132 6.45508C 58.006 6.14714 57.9648 5.88395 57.8896 5.66553C 57.818 5.44352 57.7231 5.26449 57.605 5.12842C 57.4761 4.97803 57.3167 4.86523 57.127 4.79004C 56.9372 4.71484 56.7241 4.67725 56.4878 4.67725C 56.0044 4.67725 55.6105 4.8348 55.3062 5.1499C 54.9982 5.46859 54.8156 5.90544 54.7583 6.46045L 58.0132 6.45508ZM 63.4756 10.1558C 63.028 10.1558 62.6198 10.0859 62.251 9.94629C 61.8857 9.80306 61.5742 9.59359 61.3164 9.31787C 61.055 9.03857 60.8581 8.70557 60.7256 8.31885C 60.5967 7.92855 60.5322 7.48812 60.5322 6.99756C 60.5322 6.48551 60.6003 6.03613 60.7363 5.64941C 60.876 5.2627 61.0711 4.93685 61.3218 4.67188C 61.5868 4.39258 61.9001 4.1849 62.2617 4.04883C 62.627 3.90918 63.0334 3.83936 63.481 3.83936C 63.6457 3.83936 63.7979 3.84831 63.9375 3.86621C 64.0771 3.88411 64.215 3.91276 64.3511 3.95215C 64.6232 4.02734 64.9007 4.14372 65.1836 4.30127L 65.1836 5.33789C 65.0511 5.22331 64.9204 5.12305 64.7915 5.03711C 64.6626 4.95117 64.5319 4.88314 64.3994 4.83301C 64.1309 4.72917 63.8337 4.67725 63.5078 4.67725C 62.8848 4.67725 62.4067 4.87777 62.0737 5.27881C 61.7407 5.68343 61.5742 6.25456 61.5742 6.99219C 61.5742 7.33594 61.6118 7.65462 61.687 7.94824C 61.7658 8.24186 61.8947 8.49609 62.0737 8.71094C 62.4103 9.11556 62.8937 9.31787 63.5239 9.31787C 63.703 9.31787 63.8659 9.30355 64.0127 9.2749C 64.1631 9.24626 64.3009 9.20687 64.4263 9.15674C 64.5874 9.09587 64.7253 9.02604 64.8398 8.94727C 64.958 8.86491 65.0726 8.77181 65.1836 8.66797L 65.1836 9.69385C 65.0618 9.76546 64.9294 9.83171 64.7861 9.89258C 64.6429 9.95345 64.5033 10.0036 64.3672 10.043C 64.2419 10.0788 64.104 10.1056 63.9536 10.1235C 63.8068 10.145 63.6475 10.1558 63.4756 10.1558ZM 70.6138 10.0215C 69.8761 10.0215 69.3534 9.87288 69.0454 9.57568C 68.741 9.28206 68.5889 8.77002 68.5889 8.03955L 68.5889 4.75244L 66.9829 4.75244L 66.9829 3.98438L 68.5889 3.98438L 68.5889 2.41064L 69.5771 1.98096L 69.5771 3.98438L 71.8223 3.98438L 71.8223 4.75244L 69.5771 4.75244L 69.5771 8.03955C 69.5771 8.47998 69.6613 8.78971 69.8296 8.96875C 69.9943 9.14421 70.2879 9.23193 70.7104 9.23193L 71.8223 9.23193L 71.8223 10.0215L 70.6138 10.0215ZM 76.0762 10.1558C 75.9186 10.1558 75.7557 10.1468 75.5874 10.1289C 75.4227 10.1146 75.2633 10.0931 75.1094 10.0645C 74.9697 10.0358 74.805 9.99642 74.6152 9.94629C 74.429 9.89616 74.241 9.84066 74.0513 9.77979L 74.0513 8.75928C 74.2804 8.87386 74.4756 8.96338 74.6367 9.02783C 74.7979 9.0887 74.9554 9.14062 75.1094 9.18359C 75.2741 9.23014 75.4334 9.26595 75.5874 9.29102C 75.7414 9.31608 75.9007 9.32861 76.0654 9.32861C 76.4987 9.32861 76.8371 9.2391 77.0806 9.06006C 77.2059 8.96696 77.2972 8.85775 77.3545 8.73242C 77.4118 8.6071 77.4404 8.47998 77.4404 8.35107C 77.4404 8.10042 77.3348 7.89811 77.1235 7.74414C 76.9123 7.58659 76.5793 7.46126 76.1245 7.36816L 76.0815 7.35742L 75.7109 7.28223C 75.4424 7.22852 75.2025 7.1569 74.9912 7.06738C 74.7835 6.97786 74.6081 6.86149 74.4648 6.71826C 74.2035 6.45687 74.0728 6.09701 74.0728 5.63867C 74.0728 5.34863 74.1211 5.09261 74.2178 4.87061C 74.318 4.6486 74.4648 4.46061 74.6582 4.30664C 74.8623 4.14193 75.1058 4.02376 75.3887 3.95215C 75.6715 3.87695 75.9884 3.83936 76.3394 3.83936C 76.4933 3.83936 76.6473 3.84652 76.8013 3.86084C 76.9552 3.87516 77.1074 3.89665 77.2578 3.92529C 77.3939 3.95394 77.5353 3.99154 77.6821 4.03809C 77.8325 4.08105 77.9829 4.13298 78.1333 4.19385L 78.1333 5.16064C 77.8468 4.99593 77.5622 4.8724 77.2793 4.79004C 77.1361 4.75065 76.991 4.72021 76.8442 4.69873C 76.701 4.67725 76.547 4.6665 76.3823 4.6665C 76.1746 4.6665 75.9867 4.68441 75.8184 4.72021C 75.6536 4.75602 75.5158 4.80973 75.4048 4.88135C 75.1828 5.02816 75.0718 5.25195 75.0718 5.55273C 75.0718 5.67806 75.0915 5.79264 75.1309 5.89648C 75.1738 6.00033 75.2365 6.08447 75.3188 6.14893C 75.4012 6.21338 75.5373 6.27783 75.7271 6.34229C 75.9204 6.40316 76.1943 6.46761 76.5488 6.53564L 76.9463 6.61084C 77.2041 6.66097 77.4243 6.73258 77.6069 6.82568C 77.7896 6.91878 77.9417 7.03337 78.0635 7.16943C 78.3141 7.44515 78.4395 7.81038 78.4395 8.26514C 78.4395 8.57308 78.384 8.84163 78.2729 9.0708C 78.1655 9.29639 78.0098 9.48975 77.8057 9.65088C 77.5872 9.82275 77.3312 9.94987 77.0376 10.0322C 76.7476 10.1146 76.4271 10.1558 76.0762 10.1558Z"/>
</defs>
</svg>
