<svg width="75" height="40" xmlns="http://www.w3.org/2000/svg" xmlns:xlink="http://www.w3.org/1999/xlink">
 <title>all</title>
 <desc>Created using Figma</desc>
 <defs>
  <path d="m0,8.47059l7.05882,0l0,-8.47059l-7.05882,0l0,8.47059zm0,9.88231l7.05882,0l0,-8.47055l-7.05882,0l0,8.47055zm8.47059,0l7.05881,0l0,-8.47055l-7.05881,0l0,8.47055zm8.47061,0l7.0588,0l0,-8.47055l-7.0588,0l0,8.47055zm-8.47061,-9.88231l7.05881,0l0,-8.47059l-7.05881,0l0,8.47059zm8.47061,-8.47059l0,8.47059l7.0588,0l0,-8.47059l-7.0588,0z" id="path0_fill"/>
  <path d="m2.65332,1.98096l1.31592,0l2.45459,8.01904l-1.12256,0l-0.59082,-2.08936l-2.80908,0l-0.58008,2.08936l-1.12256,0l2.45459,-8.01904zm1.79932,5.05957l-1.14405,-4.10352l-1.14404,4.10352l2.28809,0zm6.58496,3.00247c-0.2865,0 -0.5443,-0.04479 -0.7734,-0.13431c-0.2256,-0.08952 -0.42436,-0.23454 -0.59623,-0.43506c-0.32585,-0.37955 -0.48877,-0.91666 -0.48877,-1.61133l0,-5.44628l-1.58447,0l0,-0.77344l2.57277,0l0,6.21972c0,0.4476 0.0823,0.78239 0.2471,1.0044c0.0859,0.11816 0.1879,0.2041 0.3061,0.25781c0.1217,0.05371 0.2596,0.08057 0.4136,0.08057l1.1548,0l0,0.83792l-1.2515,0zm6.6279,0c-0.2864,0 -0.5442,-0.04479 -0.7734,-0.13431c-0.2256,-0.08952 -0.4243,-0.23454 -0.5962,-0.43506c-0.3258,-0.37955 -0.4888,-0.91666 -0.4888,-1.61133l0,-5.44628l-1.5844,0l0,-0.77344l2.5727,0l0,6.21972c0,0.4476 0.0824,0.78239 0.2471,1.0044c0.0859,0.11816 0.188,0.2041 0.3061,0.25781c0.1218,0.05371 0.2596,0.08057 0.4136,0.08057l1.1548,0l0,0.83792l-1.2515,0zm9.8667,-6.05862l0.897,0l0.0967,0.76806c0.1683,-0.30078 0.3885,-0.52816 0.6606,-0.68213c0.2722,-0.15397 0.5891,-0.23095 0.9507,-0.23095c0.3581,0 0.6803,0.06982 0.9668,0.20947c0.2865,0.13965 0.5335,0.35091 0.7412,0.63379c0.2077,0.28287 0.3617,0.61946 0.4619,1.00976c0.1039,0.38672 0.1558,0.82536 0.1558,1.31592c0,0.9847 -0.2077,1.75456 -0.6231,2.30957c-0.4153,0.55859 -0.9847,0.83793 -1.708,0.83793c-0.2041,0 -0.3813,-0.0215 -0.5317,-0.0645c-0.1504,-0.0394 -0.2918,-0.09667 -0.4243,-0.17187c-0.2793,-0.16113 -0.4959,-0.38672 -0.6499,-0.67675l0,3.04542l-0.9937,0l0,-8.30372zm2.4546,5.33349c0.4798,0 0.8397,-0.19515 1.0796,-0.58545c0.2399,-0.3903 0.3599,-0.96859 0.3599,-1.73486c0,-0.76628 -0.12,-1.34457 -0.3599,-1.73486c-0.2399,-0.3903 -0.5998,-0.58545 -1.0796,-0.58545c-0.4798,0 -0.8432,0.19515 -1.0903,0.58545c-0.2471,0.39388 -0.3706,0.97216 -0.3706,1.73486c0,0.76269 0.1235,1.33919 0.3706,1.72949c0.2471,0.39388 0.6105,0.59082 1.0903,0.59082zm4.7749,-5.33349l0.897,0l0.0967,1.17626c0.1683,-0.4261 0.4225,-0.75374 0.7627,-0.98291c0.3366,-0.22558 0.7394,-0.33837 1.2085,-0.33837c0.2435,0 0.4726,0.03043 0.6875,0.0913c0.1038,0.02865 0.2076,0.06804 0.3115,0.11817c0.1038,0.04655 0.2023,0.10205 0.2954,0.1665l0,1.00977c-0.2041,-0.16472 -0.4189,-0.28467 -0.6445,-0.35987c-0.222,-0.07519 -0.4637,-0.11279 -0.7251,-0.11279c-0.6123,0 -1.0814,0.19336 -1.4073,0.58008c-0.3258,0.38314 -0.4887,0.94173 -0.4887,1.67578l0,2.9917l-0.9937,0l0,-6.01562zm8.3145,6.17142c-0.4118,0 -0.7788,-0.0663 -1.1011,-0.19877c-0.3187,-0.13607 -0.589,-0.33838 -0.811,-0.60693c-0.2256,-0.2793 -0.3921,-0.61589 -0.4995,-1.00977c-0.1075,-0.39746 -0.1612,-0.84684 -0.1612,-1.34814c0,-1.01693 0.2202,-1.79753 0.6607,-2.3418c0.4404,-0.54069 1.0778,-0.81103 1.9121,-0.81103c0.4297,0 0.8021,0.06982 1.1172,0.20947c0.3186,0.13607 0.5854,0.33659 0.8003,0.60156c0.4404,0.54427 0.6606,1.32308 0.6606,2.33643c0,0.51204 -0.0555,0.96679 -0.1665,1.36425c-0.1074,0.39747 -0.2721,0.73047 -0.4941,0.99903c-0.2149,0.26497 -0.4834,0.46549 -0.8057,0.60156c-0.3187,0.13604 -0.6893,0.20414 -1.1118,0.20414zm0,-0.83793c0.5049,0 0.8862,-0.19694 1.144,-0.59082c0.2578,-0.3903 0.3867,-0.9668 0.3867,-1.72949c0,-0.7627 -0.1289,-1.34098 -0.3867,-1.73486c-0.2578,-0.3903 -0.6391,-0.58545 -1.144,-0.58545c-0.5013,0 -0.8809,0.19515 -1.1387,0.58545c-0.2578,0.39388 -0.3867,0.97216 -0.3867,1.73486c0,0.76269 0.1289,1.33919 0.3867,1.72949c0.2578,0.39388 0.6374,0.59082 1.1387,0.59082zm6.8213,-6.42383c-0.1075,0 -0.1612,-0.05371 -0.1612,-0.16113l0,-0.9292c0,-0.10742 0.0537,-0.16113 0.1612,-0.16113l0.7734,0c0.1074,0 0.1611,0.05371 0.1611,0.16113l0,0.9292c0,0.10742 -0.0537,0.16113 -0.1611,0.16113l-0.7734,0zm-2.2237,8.55616l1.2569,0c0.3222,0 0.5639,-0.111 0.7251,-0.333c0.1611,-0.2256 0.2417,-0.5622 0.2417,-1.0098l0,-5.35496l-1.7027,0l0,-0.76806l2.6909,0l0,6.12302c0,0.3402 -0.0393,0.6463 -0.1181,0.9185c-0.0788,0.2721 -0.1988,0.5049 -0.3599,0.6982c-0.1611,0.1934 -0.3581,0.3348 -0.5908,0.4243c-0.2292,0.0931 -0.4888,0.1397 -0.7788,0.1397l-1.3643,0l0,-0.8379zm8.9859,-1.2944c-0.4619,0 -0.8773,-0.0699 -1.2461,-0.20951c-0.3653,-0.14323 -0.6768,-0.3527 -0.9346,-0.62842c-0.2578,-0.27572 -0.4547,-0.60693 -0.5908,-0.99365c-0.1325,-0.3903 -0.1987,-0.83073 -0.1987,-1.32129c0,-0.50488 0.068,-0.9471 0.2041,-1.32666c0.136,-0.38314 0.324,-0.70898 0.5639,-0.97754c0.2614,-0.29004 0.5676,-0.50488 0.9185,-0.64453c0.3509,-0.14323 0.7287,-0.21484 1.1333,-0.21484c0.401,0 0.7519,0.06624 1.0527,0.19873c0.3044,0.13248 0.564,0.32405 0.7788,0.5747c0.2149,0.25065 0.3778,0.55502 0.4888,0.91309c0.1146,0.35449 0.1719,0.7609 0.1719,1.21924l0,0.4834l-4.2808,0l0,0.03222c0,0.65528 0.1719,1.16195 0.5156,1.52002c0.1647,0.17188 0.3635,0.30436 0.5962,0.39746c0.2363,0.0931 0.5174,0.13965 0.8433,0.13965c0.3258,0 0.657,-0.05013 0.9936,-0.15039c0.3474,-0.10384 0.7144,-0.25602 1.1011,-0.45654l0,0.98291c-0.1898,0.07877 -0.3742,0.14681 -0.5532,0.2041c-0.1791,0.05729 -0.3563,0.10565 -0.5318,0.14505c-0.1718,0.0394 -0.3437,0.068 -0.5156,0.0859c-0.1719,0.0179 -0.3419,0.0269 -0.5102,0.0269zm1.3535,-3.70072c-0.0072,-0.30794 -0.0484,-0.57113 -0.1236,-0.78955c-0.0716,-0.22201 -0.1665,-0.40104 -0.2846,-0.53711c-0.1289,-0.15039 -0.2883,-0.26319 -0.478,-0.33838c-0.1898,-0.0752 -0.4029,-0.11279 -0.6392,-0.11279c-0.4834,0 -0.8773,0.15755 -1.1816,0.47265c-0.308,0.31869 -0.4906,0.75554 -0.5479,1.31055l3.2549,-0.00537zm5.4624,3.70072c-0.4476,0 -0.8558,-0.0699 -1.2246,-0.20951c-0.3653,-0.14323 -0.6768,-0.3527 -0.9346,-0.62842c-0.2614,-0.2793 -0.4583,-0.6123 -0.5908,-0.99902c-0.1289,-0.3903 -0.1934,-0.83073 -0.1934,-1.32129c0,-0.51205 0.0681,-0.96143 0.2041,-1.34815c0.1397,-0.38671 0.3348,-0.71256 0.5855,-0.97753c0.265,-0.2793 0.5783,-0.48698 0.9399,-0.62305c0.3653,-0.13965 0.7717,-0.20947 1.2193,-0.20947c0.1647,0 0.3169,0.00895 0.4565,0.02685c0.1396,0.0179 0.2775,0.04655 0.4136,0.08594c0.2721,0.07519 0.5496,0.19157 0.8325,0.34912l0,1.03662c-0.1325,-0.11458 -0.2632,-0.21484 -0.3921,-0.30078c-0.1289,-0.08594 -0.2596,-0.15397 -0.3921,-0.2041c-0.2685,-0.10384 -0.5657,-0.15576 -0.8916,-0.15576c-0.623,0 -1.1011,0.20052 -1.4341,0.60156c-0.333,0.40462 -0.4995,0.97575 -0.4995,1.71338c0,0.34375 0.0376,0.66243 0.1128,0.95605c0.0788,0.29362 0.2077,0.54785 0.3867,0.7627c0.3366,0.40462 0.82,0.60693 1.4502,0.60693c0.1791,0 0.342,-0.01432 0.4888,-0.04297c0.1504,-0.02864 0.2882,-0.06803 0.4136,-0.11816c0.1611,-0.06087 0.299,-0.1307 0.4135,-0.20947c0.1182,-0.08236 0.2328,-0.17546 0.3438,-0.2793l0,1.02588c-0.1218,0.07161 -0.2542,0.13786 -0.3975,0.19873c-0.1432,0.06087 -0.2828,0.11102 -0.4189,0.15042c-0.1253,0.0358 -0.2632,0.0626 -0.4136,0.0805c-0.1468,0.0215 -0.3061,0.0323 -0.478,0.0323zm7.1382,-0.1343c-0.7377,0 -1.2604,-0.14862 -1.5684,-0.44582c-0.3044,-0.29362 -0.4565,-0.80566 -0.4565,-1.53613l0,-3.28711l-1.606,0l0,-0.76806l1.606,0l0,-1.57374l0.9882,-0.42968l0,2.00342l2.2452,0l0,0.76806l-2.2452,0l0,3.28711c0,0.44043 0.0842,0.75016 0.2525,0.9292c0.1647,0.17546 0.4583,0.26318 0.8808,0.26318l1.1119,0l0,0.78957l-1.2085,0zm5.4624,0.1343c-0.1576,0 -0.3205,-0.009 -0.4888,-0.0269c-0.1647,-0.0143 -0.3241,-0.0358 -0.478,-0.0644c-0.1397,-0.0287 -0.3044,-0.06808 -0.4942,-0.11821c-0.1862,-0.05013 -0.3742,-0.10563 -0.5639,-0.1665l0,-1.02051c0.2291,0.11458 0.4243,0.2041 0.5854,0.26855c0.1612,0.06087 0.3187,0.11279 0.4727,0.15576c0.1647,0.04655 0.324,0.08236 0.478,0.10743c0.154,0.02506 0.3133,0.03759 0.478,0.03759c0.4333,0 0.7717,-0.08951 1.0152,-0.26855c0.1253,-0.0931 0.2166,-0.20231 0.2739,-0.32764c0.0573,-0.12532 0.0859,-0.25244 0.0859,-0.38135c0,-0.25065 -0.1056,-0.45296 -0.3169,-0.60693c-0.2112,-0.15755 -0.5442,-0.28288 -0.999,-0.37598l-0.043,-0.01074l-0.3706,-0.07519c-0.2685,-0.05371 -0.5084,-0.12533 -0.7197,-0.21485c-0.2077,-0.08952 -0.3831,-0.20589 -0.5264,-0.34912c-0.2613,-0.26139 -0.392,-0.62125 -0.392,-1.07959c0,-0.29004 0.0483,-0.54606 0.145,-0.76806c0.1002,-0.22201 0.247,-0.41 0.4404,-0.56397c0.2041,-0.16471 0.4476,-0.28288 0.7305,-0.35449c0.2828,-0.0752 0.5997,-0.11279 0.9507,-0.11279c0.1539,0 0.3079,0.00716 0.4619,0.02148c0.1539,0.01432 0.3061,0.03581 0.4565,0.06445c0.1361,0.02865 0.2775,0.06625 0.4243,0.1128c0.1504,0.04296 0.3008,0.09489 0.4512,0.15576l0,0.96679c-0.2865,-0.16471 -0.5711,-0.28824 -0.854,-0.3706c-0.1432,-0.03939 -0.2883,-0.06983 -0.4351,-0.09131c-0.1432,-0.02148 -0.2972,-0.03223 -0.4619,-0.03223c-0.2077,0 -0.3956,0.01791 -0.5639,0.05371c-0.1648,0.03581 -0.3026,0.08952 -0.4136,0.16114c-0.222,0.14681 -0.333,0.3706 -0.333,0.67138c0,0.12533 0.0197,0.23991 0.0591,0.34375c0.0429,0.10385 0.1056,0.18799 0.1879,0.25245c0.0824,0.06445 0.2185,0.1289 0.4083,0.19336c0.1933,0.06087 0.4672,0.12532 0.8217,0.19335l0.3975,0.0752c0.2578,0.05013 0.478,0.12174 0.6606,0.21484c0.1827,0.0931 0.3348,0.20769 0.4566,0.34375c0.2506,0.27572 0.376,0.64095 0.376,1.09571c0,0.30794 -0.0555,0.57649 -0.1666,0.80566c-0.1074,0.22559 -0.2631,0.41895 -0.4672,0.58008c-0.2185,0.17187 -0.4745,0.29899 -0.7681,0.38132c-0.29,0.0824 -0.6105,0.1236 -0.9614,0.1236z" id="path1_fill"/>
 </defs>
 <g>
  <title>background</title>
  <rect fill="none" id="canvas_background" height="42" width="77" y="-1" x="-1"/>
 </g>
 <g>
  <title>Layer 1</title>
  <g stroke="null" id="Canvas">
   <g stroke="null" id="all">
    <g stroke="null" id="ic_view_module_white_24px">
     <g stroke="null" id="Vector">
      <use stroke="null" transform="matrix(1.1252733929787537,0,0,1.1252733929787537,-1.7574304027407948,3.0816984743035976) " id="svg_1" x="22.887018" y="-1.900599" fill="#7F7FBA" xlink:href="#path0_fill"/>
     </g>
    </g>
    <g stroke="null" id="All projects">
     <use stroke="null" transform="matrix(0.9519415751264765,0,0,0.9519415751264765,0.6983999192563919,4.660286707123605) " id="svg_2" x="-0.638562" y="24.478346" fill="#7F7FBA" xlink:href="#path1_fill"/>
    </g>
   </g>
  </g>
 </g>
</svg>