<svg width="15" height="17" viewBox="0 0 15 17" version="1.1" xmlns="http://www.w3.org/2000/svg" xmlns:xlink="http://www.w3.org/1999/xlink" xmlns:figma="http://www.figma.com/figma/ns">
<title>Vector</title>
<desc>Created using Figma</desc>
<g id="Canvas" transform="translate(232 31)" figma:type="canvas">
<g id="Vector" style="mix-blend-mode:normal;" figma:type="vector">
<use xlink:href="#path0_fill" transform="translate(-231.324 -30.1806)" fill="#FFFFFF" style="mix-blend-mode:normal;"/>
</g>
</g>
<defs>
<path id="path0_fill" d="M 2.75193 12.015C 2.75193 12.3821 3.06153 12.6825 3.43992 12.6825L 4.1279 12.6825L 4.1279 15.0187C 4.1279 15.5728 4.58885 16.02 5.15988 16.02C 5.7309 16.02 6.19185 15.5728 6.19185 15.0187L 6.19185 12.6825L 7.56782 12.6825L 7.56782 15.0187C 7.56782 15.5728 8.02877 16.02 8.5998 16.02C 9.17082 16.02 9.63177 15.5728 9.63177 15.0187L 9.63177 12.6825L 10.3198 12.6825C 10.6981 12.6825 11.0077 12.3821 11.0077 12.015L 11.0077 5.33999L 2.75193 5.33999L 2.75193 12.015ZM 1.03198 5.33999C 0.460949 5.33999 0 5.78722 0 6.34124L 0 11.0137C 0 11.5678 0.460949 12.015 1.03198 12.015C 1.603 12.015 2.06395 11.5678 2.06395 11.0137L 2.06395 6.34124C 2.06395 5.78722 1.603 5.33999 1.03198 5.33999ZM 12.7277 5.33999C 12.1567 5.33999 11.6957 5.78722 11.6957 6.34124L 11.6957 11.0137C 11.6957 11.5678 12.1567 12.015 12.7277 12.015C 13.2987 12.015 13.7597 11.5678 13.7597 11.0137L 13.7597 6.34124C 13.7597 5.78722 13.2987 5.33999 12.7277 5.33999ZM 9.30842 1.4418L 10.2028 0.574049C 10.3404 0.440549 10.3404 0.233625 10.2028 0.100125C 10.0652 -0.0333749 9.85193 -0.0333749 9.71433 0.100125L 8.69611 1.08802C 8.15261 0.821024 7.53342 0.667499 6.87984 0.667499C 6.21937 0.667499 5.60019 0.821024 5.0498 1.08802L 4.0247 0.100125C 3.88711 -0.0333749 3.67383 -0.0333749 3.53624 0.100125C 3.39864 0.233625 3.39864 0.440549 3.53624 0.574049L 4.43749 1.44847C 3.41928 2.17605 2.75193 3.34417 2.75193 4.67249L 11.0077 4.67249C 11.0077 3.34417 10.3404 2.16937 9.30842 1.4418ZM 5.50387 3.33749L 4.81589 3.33749L 4.81589 2.67L 5.50387 2.67L 5.50387 3.33749ZM 8.94379 3.33749L 8.2558 3.33749L 8.2558 2.67L 8.94379 2.67L 8.94379 3.33749Z"/>
</defs>
</svg>
