<svg width="18" height="17" viewBox="0 0 18 17" version="1.1" xmlns="http://www.w3.org/2000/svg" xmlns:xlink="http://www.w3.org/1999/xlink" xmlns:figma="http://www.figma.com/figma/ns">
<title>1486754568_world</title>
<desc>Created using Figma</desc>
<g id="Canvas" transform="translate(-132 188)" figma:type="canvas">
<g id="1486754568_world" style="mix-blend-mode:normal;" figma:type="frame">
<g id="world" style="mix-blend-mode:normal;" figma:type="vector">
<use xlink:href="#path0_fill" transform="translate(132.62 -187.376)" fill="#FFFFFF" style="mix-blend-mode:normal;"/>
</g>
</g>
</g>
<defs>
<path id="path0_fill" d="M 8.2558 0C 3.69594 0 0 3.58589 0 8.00999C 0 12.4341 3.69594 16.02 8.2558 16.02C 12.8157 16.02 16.5116 12.4341 16.5116 8.00999C 16.5116 3.58589 12.8157 0 8.2558 0ZM 15.433 7.7516L 12.2394 7.7516C 12.2101 6.60695 12.0002 5.51346 11.6279 4.51247C 12.347 4.22152 13.0117 3.83446 13.6178 3.37711C 14.6953 4.55071 15.3691 6.07467 15.433 7.7516ZM 7.96126 14.972C 7.07602 14.2567 6.33353 13.3281 5.79025 12.2496C 6.48746 12.0382 7.22622 11.9225 7.98949 11.8987L 7.98949 14.973C 7.9799 14.973 7.97084 14.9725 7.96126 14.972ZM 8.54928 1.04802C 9.55383 1.85935 10.3735 2.94613 10.928 4.21377C 10.1685 4.46544 9.36155 4.61169 8.52159 4.63752L 8.52159 1.04647C 8.53171 1.04698 8.54023 1.0475 8.54928 1.04802ZM 9.43665 1.13587C 10.9067 1.37307 12.2255 2.03919 13.2524 3.00349C 12.6948 3.41846 12.0854 3.76986 11.4266 4.036C 10.9419 2.92132 10.2617 1.93583 9.43665 1.13587ZM 7.98949 1.04647L 7.98949 4.63752C 7.14953 4.61117 6.34205 4.46544 5.58305 4.21377C 6.13752 2.94613 6.95725 1.85935 7.96179 1.04802C 7.97138 1.0475 7.9799 1.04698 7.98949 1.04647ZM 5.08451 4.03652C 4.42671 3.77038 3.81684 3.41897 3.25918 3.004C 4.28556 2.0397 5.60489 1.37358 7.07496 1.13638C 6.24938 1.93583 5.56974 2.92132 5.08451 4.03652ZM 5.38225 4.69024C 6.20357 4.96671 7.07869 5.12794 7.98949 5.15481L 7.98949 7.7516L 4.80488 7.7516C 4.83364 6.66948 5.03125 5.63541 5.38225 4.69024ZM 7.98949 8.26837L 7.98949 11.3819C 7.14953 11.4067 6.33726 11.5401 5.57187 11.7793C 5.11061 10.7137 4.83843 9.52672 4.80488 8.26837L 7.98949 8.26837ZM 7.07496 14.8841C 5.75776 14.6717 4.56146 14.1151 3.58888 13.3069C 4.11352 12.954 4.68077 12.6553 5.28691 12.4284C 5.75137 13.3627 6.3591 14.1921 7.07496 14.8841ZM 8.52212 14.9735L 8.52212 11.8992C 9.28485 11.923 10.0241 12.0388 10.7214 12.2501C 10.1775 13.3286 9.43558 14.2573 8.55035 14.9725C 8.54129 14.9725 8.53171 14.973 8.52212 14.9735ZM 11.2247 12.4284C 11.8303 12.6553 12.397 12.9545 12.9227 13.3069C 11.9501 14.1146 10.7538 14.6717 9.43665 14.8841C 10.1525 14.1921 10.7597 13.3627 11.2247 12.4284ZM 10.9397 11.7793C 10.1738 11.5401 9.36155 11.4067 8.52212 11.3819L 8.52212 8.26837L 11.7067 8.26837C 11.6732 9.52672 11.4005 10.7137 10.9397 11.7793ZM 8.52212 7.7516L 8.52212 5.15481C 9.43239 5.12794 10.3075 4.96723 11.1294 4.69075C 11.4798 5.63593 11.6774 6.66999 11.7067 7.75212L 8.52212 7.75212L 8.52212 7.7516ZM 2.89432 3.37711C 3.50046 3.83446 4.16519 4.22152 4.88371 4.51247C 4.5114 5.51346 4.30154 6.60695 4.27224 7.7516L 1.07858 7.7516C 1.1425 6.07467 1.81628 4.55071 2.89432 3.37711ZM 1.07858 8.26837L 4.27224 8.26837C 4.30527 9.58873 4.58969 10.8357 5.07279 11.9566C 4.39795 12.2119 3.76891 12.5519 3.18834 12.9545C 1.93772 11.7468 1.14836 10.0957 1.07858 8.26837ZM 13.3233 12.954C 12.7427 12.5519 12.1137 12.2114 11.4383 11.9561C 11.9219 10.8352 12.2058 9.58821 12.2394 8.26786L 15.433 8.26786C 15.3633 10.0957 14.5734 11.7468 13.3233 12.954Z"/>
</defs>
</svg>
