<svg width="172" height="150" viewBox="0 0 172 150" version="1.1" xmlns="http://www.w3.org/2000/svg" xmlns:xlink="http://www.w3.org/1999/xlink" xmlns:figma="http://www.figma.com/figma/ns">
<title>devices</title>
<desc>Created using Figma</desc>
<g id="Canvas" transform="translate(-347 -846)" figma:type="canvas">
<g id="devices" style="mix-blend-mode:normal;" figma:type="frame">
<g id="1486755533_flat-television" style="mix-blend-mode:normal;" figma:type="frame">
<g id="Vector" style="mix-blend-mode:normal;isolation:isolate;" figma:type="vector">
<use xlink:href="#path0_fill" transform="translate(347 846.774)" fill="url(#paint0_linear)" fill-opacity="0.99" style="mix-blend-mode:normal;"/>
</g>
<g id="Vector" style="mix-blend-mode:normal;" figma:type="vector">
<use xlink:href="#path1_fill" transform="translate(353.361 853.452)" fill="url(#paint1_linear)" style="mix-blend-mode:normal;"/>
</g>
<g id="Vector" style="mix-blend-mode:normal;isolation:isolate;" figma:type="vector">
<use xlink:href="#path2_fill" transform="translate(402.231 958.318)" fill="url(#paint2_linear)" fill-opacity="0.99" style="mix-blend-mode:normal;"/>
</g>
<g id="Vector" style="mix-blend-mode:normal;" figma:type="vector">
<use xlink:href="#path3_fill" transform="translate(431.115 952.211)" fill="#D8D8D8" style="mix-blend-mode:normal;"/>
</g>
<g id="1486754568_world" style="mix-blend-mode:normal;" figma:type="frame">
<g id="world" style="mix-blend-mode:normal;" figma:type="vector">
<use xlink:href="#path4_fill" transform="translate(401 870)" fill="#FFFFFF" style="mix-blend-mode:normal;"/>
</g>
</g>
</g>
<g id="1486755807_BT_iphone" style="mix-blend-mode:normal;" figma:type="frame">
<g id="rect3010" style="mix-blend-mode:normal;isolation:isolate;" figma:type="vector">
<use xlink:href="#path5_fill" transform="translate(479 940.498)" fill="#FF9A7E" style="mix-blend-mode:normal;"/>
</g>
<g id="Rectangle 4" style="mix-blend-mode:normal;" figma:type="vector">
<use xlink:href="#path6_fill" transform="translate(480.36 946.787)" fill="url(#paint6_linear)" style="mix-blend-mode:normal;"/>
</g>
<g id="1486754568_world" style="mix-blend-mode:normal;" figma:type="frame">
<g id="world" style="mix-blend-mode:normal;" figma:type="vector">
<use xlink:href="#path7_fill" transform="translate(485 961)" fill="#FFFFFF" style="mix-blend-mode:normal;"/>
</g>
</g>
</g>
</g>
</g>
<defs>
<linearGradient id="paint0_linear" x1="0" y1="0" x2="1" y2="0" gradientUnits="userSpaceOnUse" gradientTransform="matrix(7.94737e-14 138.226 -213.141 2.40339e-13 192.57 -4.06635e-14)">
<stop offset="0" stop-color="#FFA364"/>
<stop offset="1" stop-color="#F97D6F"/>
</linearGradient>
<linearGradient id="paint1_linear" x1="0" y1="0" x2="1" y2="0" gradientUnits="userSpaceOnUse" gradientTransform="matrix(143.746 83.2448 -116.681 290.101 71.4265 -135.411)">
<stop offset="0.0283752" stop-color="#C04848"/>
<stop offset="1" stop-color="#812248"/>
</linearGradient>
<linearGradient id="paint2_linear" x1="0" y1="0" x2="1" y2="0" gradientUnits="userSpaceOnUse" gradientTransform="matrix(0.456272 137.145 -369.189 1.22827 214.363 -109.932)">
<stop offset="0" stop-color="#FFA364"/>
<stop offset="1" stop-color="#F97D6F"/>
</linearGradient>
<linearGradient id="paint6_linear" x1="0" y1="0" x2="1" y2="0" gradientUnits="userSpaceOnUse" gradientTransform="matrix(22.1108 35.8408 -17.9476 124.902 10.9867 -58.3009)">
<stop offset="0.0283752" stop-color="#C04848"/>
<stop offset="1" stop-color="#812248"/>
</linearGradient>
<path id="path0_fill" d="M 167.002 -4.83735e-07L 4.99901 -4.83735e-07C 0.861616 -4.83735e-07 0 0.862415 0 5.00365L 0 106.542C 0 110.683 0.861616 111.546 4.99901 111.546L 167.002 111.546C 171.139 111.546 172 110.683 172 106.542L 172 5.00423C 172.001 0.863002 171.139 -4.83735e-07 167.002 -4.83735e-07Z"/>
<path id="path1_fill" d="M 159.279 0L 0 0L 0 96.389L 159.279 96.389L 159.279 0Z"/>
<path id="path2_fill" d="M 56.3974 19.7527C 46.4264 15.4912 46.5314 -2.72325e-06 46.5314 -2.72325e-06L 15.4751 -2.72325e-06C 14.2287 16.323 4.04942 19.7527 4.04942 19.7527L 2.14795e-07 19.7527L 2.14795e-07 22.4556L 60.4498 22.4556L 60.4498 19.7527L 56.3974 19.7527Z"/>
<path id="path3_fill" d="M 1.88511 3.77372C 2.92623 3.77372 3.77023 2.92895 3.77023 1.88687C 3.77023 0.844781 2.92623 0 1.88511 0C 0.843995 0 -2.64913e-06 0.844781 -2.64913e-06 1.88687C -2.64913e-06 2.92895 0.843995 3.77372 1.88511 3.77372Z"/>
<path id="path4_fill" d="M 32 0C 14.3257 0 0 14.1018 0 31.5C 0 48.8982 14.3257 63 32 63C 49.6743 63 64 48.8982 64 31.5C 64 14.1018 49.6743 0 32 0ZM 59.8194 30.4839L 47.4405 30.4839C 47.327 25.9824 46.5135 21.6822 45.0705 17.7457C 47.8575 16.6015 50.4341 15.0794 52.7835 13.2808C 56.96 17.8961 59.5716 23.8892 59.8194 30.4839ZM 30.8583 58.8786C 27.4271 56.0659 24.5492 52.414 22.4434 48.1726C 25.1458 47.3415 28.0093 46.8862 30.9677 46.7927L 30.9677 58.8826C 30.9306 58.8826 30.8955 58.8806 30.8583 58.8786ZM 33.1375 4.12142C 37.0312 7.31206 40.2085 11.5859 42.3577 16.571C 39.4137 17.5607 36.2859 18.1359 33.0302 18.2375L 33.0302 4.11532C 33.0694 4.11736 33.1025 4.11939 33.1375 4.12142ZM 36.577 4.4669C 42.2751 5.39971 47.3868 8.01929 51.3672 11.8115C 49.2057 13.4434 46.8439 14.8253 44.2901 15.8719C 42.4114 11.4884 39.775 7.61284 36.577 4.4669ZM 30.9677 4.11532L 30.9677 18.2375C 27.712 18.1338 24.5822 17.5607 21.6403 16.571C 23.7894 11.5859 26.9667 7.31206 30.8604 4.12142C 30.8975 4.11939 30.9306 4.11736 30.9677 4.11532ZM 19.7079 15.874C 17.1582 14.8274 14.7943 13.4454 12.6328 11.8135C 16.6111 8.02132 21.7249 5.40174 27.423 4.46894C 24.223 7.61284 21.5886 11.4884 19.7079 15.874ZM 20.8619 18.4448C 24.0454 19.532 27.4374 20.1661 30.9677 20.2718L 30.9677 30.4839L 18.624 30.4839C 18.7355 26.2283 19.5014 22.1618 20.8619 18.4448ZM 30.9677 32.5161L 30.9677 44.7605C 27.712 44.858 24.5636 45.3824 21.5969 46.3233C 19.809 42.1328 18.7541 37.4647 18.624 32.5161L 30.9677 32.5161ZM 27.423 58.5331C 22.3174 57.6978 17.6805 55.5091 13.9107 52.3306C 15.9443 50.9426 18.143 49.768 20.4924 48.8758C 22.2926 52.5501 24.6483 55.8119 27.423 58.5331ZM 33.0323 58.8847L 33.0323 46.7948C 35.9886 46.8883 38.8542 47.3435 41.5566 48.1747C 39.4488 52.416 36.5729 56.068 33.1417 58.8806C 33.1066 58.8806 33.0694 58.8826 33.0323 58.8847ZM 43.5076 48.8758C 45.855 49.768 48.0516 50.9446 50.0893 52.3306C 46.3195 55.5071 41.6826 57.6978 36.577 58.5331C 39.3517 55.8119 41.7053 52.5501 43.5076 48.8758ZM 42.4031 46.3233C 39.4343 45.3824 36.2859 44.858 33.0323 44.7605L 33.0323 32.5161L 45.376 32.5161C 45.2459 37.4647 44.1889 42.1328 42.4031 46.3233ZM 33.0323 30.4839L 33.0323 20.2718C 36.5605 20.1661 39.9525 19.5341 43.1381 18.4468C 44.4965 22.1638 45.2625 26.2304 45.376 30.4859L 33.0323 30.4859L 33.0323 30.4839ZM 11.2186 13.2808C 13.568 15.0794 16.1445 16.6015 18.9295 17.7457C 17.4865 21.6822 16.673 25.9824 16.5595 30.4839L 4.18065 30.4839C 4.42839 23.8892 7.04 17.8961 11.2186 13.2808ZM 4.18065 32.5161L 16.5595 32.5161C 16.6875 37.7085 17.7899 42.6124 19.6625 47.0204C 17.0467 48.0243 14.6085 49.3615 12.3582 50.9446C 7.51071 46.1953 4.4511 39.7022 4.18065 32.5161ZM 51.6418 50.9426C 49.3915 49.3615 46.9533 48.0223 44.3355 47.0183C 46.2101 42.6104 47.3105 37.7065 47.4405 32.5141L 59.8194 32.5141C 59.5489 39.7022 56.4872 46.1953 51.6418 50.9426Z"/>
<path id="path5_fill" d="M 3.85714 -1.11169e-06C 2.84737 9.99348e-05 1.84303 0.412856 1.12902 1.12318C 0.415002 1.83351 0.000101571 2.83266 0 3.83721L 0 51.1628C 0.000101571 52.1673 0.415002 53.1665 1.12902 53.8768C 1.84303 54.5872 2.84737 54.9999 3.85714 55L 23.1429 55C 24.1526 54.9999 25.157 54.5872 25.871 53.8768C 26.585 53.1665 26.9999 52.1673 27 51.1628L 27 3.83721C 26.9999 2.83266 26.585 1.83351 25.871 1.12318C 25.157 0.412856 24.1526 9.99348e-05 23.1429 -1.11169e-06L 3.85714 -1.11169e-06ZM 11.479 2.55814C 11.4884 2.55793 11.4978 2.55793 11.5071 2.55814C 11.5286 2.55707 11.55 2.55707 11.5714 2.55814L 15.4286 2.55814C 15.5138 2.55694 15.5983 2.5726 15.6774 2.6042C 15.7564 2.6358 15.8284 2.68272 15.8891 2.74222C 15.9497 2.80173 15.9979 2.87263 16.0308 2.95082C 16.0637 3.02901 16.0806 3.11292 16.0806 3.19767C 16.0806 3.28243 16.0637 3.36634 16.0308 3.44453C 15.9979 3.52271 15.9497 3.59362 15.8891 3.65312C 15.8284 3.71263 15.7564 3.75955 15.6774 3.79115C 15.5983 3.82275 15.5138 3.83841 15.4286 3.83721L 11.5714 3.83721C 11.4009 3.8494 11.2326 3.79371 11.1033 3.6824C 10.9741 3.57108 10.8946 3.41325 10.8824 3.24364C 10.8701 3.07402 10.9261 2.90651 11.038 2.77796C 11.1499 2.6494 11.3085 2.57033 11.479 2.55814ZM 1.28571 6.39535L 25.7143 6.39535L 25.7143 47.9651L 1.28571 47.9651L 1.28571 6.39535ZM 13.5 49.2442C 14.5651 49.2442 15.4286 50.1032 15.4286 51.1628C 15.4286 52.2224 14.5651 53.0814 13.5 53.0814C 12.4349 53.0814 11.5714 52.2224 11.5714 51.1628C 11.5714 50.1032 12.4349 49.2442 13.5 49.2442Z"/>
<path id="path6_fill" d="M 0 0L 24.5 0L 24.5 41.5L 0 41.5L 0 0Z"/>
<path id="path7_fill" d="M 7.5 0C 3.35758 0 0 3.35758 0 7.5C 0 11.6424 3.35758 15 7.5 15C 11.6424 15 15 11.6424 15 7.5C 15 3.35758 11.6424 0 7.5 0ZM 14.0202 7.25806L 11.1189 7.25806C 11.0923 6.18629 10.9016 5.16242 10.5634 4.22516C 11.2166 3.95274 11.8205 3.59032 12.3711 3.1621C 13.35 4.26097 13.9621 5.6879 14.0202 7.25806ZM 7.23242 14.0187C 6.42823 13.349 5.75371 12.4795 5.26016 11.4697C 5.89355 11.2718 6.56468 11.1634 7.25806 11.1411L 7.25806 14.0197C 7.24935 14.0197 7.24113 14.0192 7.23242 14.0187ZM 7.76661 0.98129C 8.67919 1.74097 9.42387 2.75855 9.92758 3.94548C 9.23758 4.18113 8.50452 4.31806 7.74145 4.34226L 7.74145 0.979839C 7.75064 0.980323 7.75839 0.980807 7.76661 0.98129ZM 8.57274 1.06355C 9.90823 1.28565 11.1063 1.90935 12.0392 2.81226C 11.5326 3.20081 10.979 3.52984 10.3805 3.77903C 9.94016 2.73532 9.32226 1.81258 8.57274 1.06355ZM 7.25806 0.979839L 7.25806 4.34226C 6.495 4.31758 5.76145 4.18113 5.07194 3.94548C 5.57565 2.75855 6.32032 1.74097 7.2329 0.98129C 7.24161 0.980807 7.24935 0.980323 7.25806 0.979839ZM 4.61903 3.77952C 4.02145 3.53032 3.46742 3.20129 2.96081 2.81274C 3.89323 1.90984 5.09177 1.28613 6.42726 1.06403C 5.67726 1.81258 5.05984 2.73532 4.61903 3.77952ZM 4.88952 4.39161C 5.63564 4.65048 6.43065 4.80145 7.25806 4.82661L 7.25806 7.25806L 4.365 7.25806C 4.39113 6.24484 4.57064 5.27661 4.88952 4.39161ZM 7.25806 7.74194L 7.25806 10.6573C 6.495 10.6805 5.7571 10.8053 5.06177 11.0294C 4.64274 10.0316 4.39548 8.92016 4.365 7.74194L 7.25806 7.74194ZM 6.42726 13.9365C 5.23065 13.7376 4.14387 13.2165 3.26032 12.4597C 3.73694 12.1292 4.25226 11.8495 4.8029 11.6371C 5.22484 12.5119 5.77694 13.2885 6.42726 13.9365ZM 7.74194 14.0202L 7.74194 11.1416C 8.43484 11.1639 9.10645 11.2723 9.73984 11.4702C 9.24581 12.48 8.57177 13.3495 7.76758 14.0192C 7.75935 14.0192 7.75065 14.0197 7.74194 14.0202ZM 10.1971 11.6371C 10.7473 11.8495 11.2621 12.1297 11.7397 12.4597C 10.8561 13.216 9.76935 13.7376 8.57274 13.9365C 9.22306 13.2885 9.77468 12.5119 10.1971 11.6371ZM 9.93823 11.0294C 9.24242 10.8053 8.50452 10.6805 7.74194 10.6573L 7.74194 7.74194L 10.635 7.74194C 10.6045 8.92016 10.3568 10.0316 9.93823 11.0294ZM 7.74194 7.25806L 7.74194 4.82661C 8.56887 4.80145 9.36387 4.65097 10.1105 4.3921C 10.4289 5.2771 10.6084 6.24532 10.635 7.25855L 7.74194 7.25855L 7.74194 7.25806ZM 2.62935 3.1621C 3.18 3.59032 3.78387 3.95274 4.43661 4.22516C 4.09839 5.16242 3.90774 6.18629 3.88113 7.25806L 0.979839 7.25806C 1.0379 5.6879 1.65 4.26097 2.62935 3.1621ZM 0.979839 7.74194L 3.88113 7.74194C 3.91113 8.97823 4.16952 10.1458 4.60839 11.1953C 3.99532 11.4344 3.42387 11.7527 2.89645 12.1297C 1.76032 10.9989 1.04323 9.4529 0.979839 7.74194ZM 12.1035 12.1292C 11.5761 11.7527 11.0047 11.4339 10.3911 11.1948C 10.8305 10.1453 11.0884 8.97774 11.1189 7.74145L 14.0202 7.74145C 13.9568 9.4529 13.2392 10.9989 12.1035 12.1292Z"/>
</defs>
</svg>
