<svg width="45" height="42" xmlns="http://www.w3.org/2000/svg" xmlns:xlink="http://www.w3.org/1999/xlink">
 <title>next</title>
 <desc>Created using Figma</desc>
 <defs>
  <path d="m24,10.5l-18.255,0l8.385,-8.385l-2.13,-2.115l-12,12l12,12l2.115,-2.115l-8.37,-8.385l18.255,0l0,-3z" id="path0_fill"/>
  <path d="m0.92383,1.98096l2.34179,0c0.89161,0 1.57015,0.20231 2.03565,0.60693c0.23991,0.21126 0.41536,0.46908 0.52637,0.77344c0.111,0.30078 0.1665,0.64095 0.1665,1.02051c0,0.78776 -0.22917,1.38395 -0.6875,1.78857c-0.22559,0.20052 -0.50846,0.3527 -0.84863,0.45654c-0.34017,0.10026 -0.73763,0.15039 -1.19239,0.15039l-1.25683,0l0,3.22266l-1.08496,0l0,-8.01904zm2.34179,3.90478c0.26856,0 0.49952,-0.03581 0.69288,-0.10742c0.19336,-0.07161 0.35449,-0.16829 0.48339,-0.29004c0.2793,-0.26139 0.41895,-0.632 0.41895,-1.11182c0,-0.47623 -0.13965,-0.84684 -0.41895,-1.11181c-0.27571,-0.26139 -0.6678,-0.39209 -1.17627,-0.39209l-1.25683,0l0,3.01318l1.25683,0zm4.98438,-1.90136l0.89697,0l0.09668,1.17626c0.1683,-0.4261 0.42253,-0.75374 0.76265,-0.98291c0.3366,-0.22558 0.7395,-0.33837 1.2085,-0.33837c0.2435,0 0.4727,0.03043 0.6875,0.0913c0.1039,0.02865 0.2077,0.06804 0.3116,0.11817c0.1038,0.04655 0.2023,0.10205 0.2954,0.1665l0,1.00977c-0.2041,-0.16472 -0.419,-0.28467 -0.6446,-0.35987c-0.222,-0.07519 -0.4637,-0.11279 -0.7251,-0.11279c-0.6123,0 -1.0813,0.19336 -1.40718,0.58008c-0.32584,0.38314 -0.48877,0.94173 -0.48877,1.67578l0,2.9917l-0.99365,0l0,-6.01562zm8.3145,6.17142c-0.4118,0 -0.7789,-0.0663 -1.1011,-0.19877c-0.3187,-0.13607 -0.5891,-0.33838 -0.8111,-0.60693c-0.2255,-0.2793 -0.392,-0.61589 -0.4995,-1.00977c-0.1074,-0.39746 -0.1611,-0.84684 -0.1611,-1.34814c0,-1.01693 0.2202,-1.79753 0.6606,-2.3418c0.4405,-0.54069 1.0778,-0.81103 1.9122,-0.81103c0.4296,0 0.802,0.06982 1.1171,0.20947c0.3187,0.13607 0.5855,0.33659 0.8003,0.60156c0.4405,0.54427 0.6607,1.32308 0.6607,2.33643c0,0.51204 -0.0555,0.96679 -0.1665,1.36425c-0.1074,0.39747 -0.2722,0.73047 -0.4942,0.99903c-0.2148,0.26497 -0.4834,0.46549 -0.8056,0.60156c-0.3187,0.13604 -0.6893,0.20414 -1.1118,0.20414zm0,-0.83793c0.5048,0 0.8862,-0.19694 1.144,-0.59082c0.2578,-0.3903 0.3867,-0.9668 0.3867,-1.72949c0,-0.7627 -0.1289,-1.34098 -0.3867,-1.73486c-0.2578,-0.3903 -0.6392,-0.58545 -1.144,-0.58545c-0.5013,0 -0.8809,0.19515 -1.1387,0.58545c-0.2578,0.39388 -0.3867,0.97216 -0.3867,1.73486c0,0.76269 0.1289,1.33919 0.3867,1.72949c0.2578,0.39388 0.6374,0.59082 1.1387,0.59082zm6.8212,-6.42383c-0.1074,0 -0.1611,-0.05371 -0.1611,-0.16113l0,-0.9292c0,-0.10742 0.0537,-0.16113 0.1611,-0.16113l0.7735,0c0.1074,0 0.1611,0.05371 0.1611,0.16113l0,0.9292c0,0.10742 -0.0537,0.16113 -0.1611,0.16113l-0.7735,0zm-2.2236,8.55616l1.2568,0c0.3223,0 0.564,-0.111 0.7251,-0.333c0.1612,-0.2256 0.2417,-0.5622 0.2417,-1.0098l0,-5.35496l-1.7026,0l0,-0.76806l2.6909,0l0,6.12302c0,0.3402 -0.0394,0.6463 -0.1181,0.9185c-0.0788,0.2721 -0.1988,0.5049 -0.3599,0.6982c-0.1611,0.1934 -0.3581,0.3348 -0.5908,0.4243c-0.2292,0.0931 -0.4888,0.1397 -0.7788,0.1397l-1.3643,0l0,-0.8379zm8.9858,-1.2944c-0.4619,0 -0.8772,-0.0699 -1.246,-0.20951c-0.3653,-0.14323 -0.6768,-0.3527 -0.9346,-0.62842c-0.2578,-0.27572 -0.4548,-0.60693 -0.5908,-0.99365c-0.1325,-0.3903 -0.1988,-0.83073 -0.1988,-1.32129c0,-0.50488 0.0681,-0.9471 0.2041,-1.32666c0.1361,-0.38314 0.3241,-0.70898 0.564,-0.97754c0.2614,-0.29004 0.5675,-0.50488 0.9185,-0.64453c0.3509,-0.14323 0.7286,-0.21484 1.1333,-0.21484c0.401,0 0.7519,0.06624 1.0527,0.19873c0.3044,0.13248 0.564,0.32405 0.7788,0.5747c0.2148,0.25065 0.3778,0.55502 0.4888,0.91309c0.1146,0.35449 0.1718,0.7609 0.1718,1.21924l0,0.4834l-4.2807,0l0,0.03222c0,0.65528 0.1719,1.16195 0.5156,1.52002c0.1647,0.17188 0.3635,0.30436 0.5962,0.39746c0.2363,0.0931 0.5174,0.13965 0.8433,0.13965c0.3258,0 0.657,-0.05013 0.9936,-0.15039c0.3473,-0.10384 0.7144,-0.25602 1.1011,-0.45654l0,0.98291c-0.1898,0.07877 -0.3742,0.14681 -0.5532,0.2041c-0.1791,0.05729 -0.3563,0.10565 -0.5318,0.14505c-0.1718,0.0394 -0.3437,0.068 -0.5156,0.0859c-0.1719,0.0179 -0.342,0.0269 -0.5103,0.0269zm1.3536,-3.70072c-0.0072,-0.30794 -0.0484,-0.57113 -0.1236,-0.78955c-0.0716,-0.22201 -0.1665,-0.40104 -0.2846,-0.53711c-0.1289,-0.15039 -0.2883,-0.26319 -0.4781,-0.33838c-0.1897,-0.0752 -0.4028,-0.11279 -0.6391,-0.11279c-0.4834,0 -0.8773,0.15755 -1.1817,0.47265c-0.3079,0.31869 -0.4905,0.75554 -0.5478,1.31055l3.2549,-0.00537zm5.4624,3.70072c-0.4476,0 -0.8558,-0.0699 -1.2246,-0.20951c-0.3653,-0.14323 -0.6768,-0.3527 -0.9346,-0.62842c-0.2614,-0.2793 -0.4583,-0.6123 -0.5908,-0.99902c-0.1289,-0.3903 -0.1934,-0.83073 -0.1934,-1.32129c0,-0.51205 0.068,-0.96143 0.2041,-1.34815c0.1397,-0.38671 0.3348,-0.71256 0.5855,-0.97753c0.2649,-0.2793 0.5782,-0.48698 0.9399,-0.62305c0.3652,-0.13965 0.7716,-0.20947 1.2192,-0.20947c0.1648,0 0.3169,0.00895 0.4566,0.02685c0.1396,0.0179 0.2775,0.04655 0.4136,0.08594c0.2721,0.07519 0.5496,0.19157 0.8325,0.34912l0,1.03662c-0.1325,-0.11458 -0.2632,-0.21484 -0.3921,-0.30078c-0.1289,-0.08594 -0.2596,-0.15397 -0.3921,-0.2041c-0.2686,-0.10384 -0.5658,-0.15576 -0.8916,-0.15576c-0.6231,0 -1.1011,0.20052 -1.4341,0.60156c-0.333,0.40462 -0.4995,0.97575 -0.4995,1.71338c0,0.34375 0.0376,0.66243 0.1128,0.95605c0.0788,0.29362 0.2077,0.54785 0.3867,0.7627c0.3366,0.40462 0.82,0.60693 1.4502,0.60693c0.179,0 0.342,-0.01432 0.4888,-0.04297c0.1504,-0.02864 0.2882,-0.06803 0.4136,-0.11816c0.1611,-0.06087 0.2989,-0.1307 0.4135,-0.20947c0.1182,-0.08236 0.2328,-0.17546 0.3438,-0.2793l0,1.02588c-0.1218,0.07161 -0.2543,0.13786 -0.3975,0.19873c-0.1432,0.06087 -0.2829,0.11102 -0.4189,0.15042c-0.1254,0.0358 -0.2632,0.0626 -0.4136,0.0805c-0.1468,0.0215 -0.3062,0.0323 -0.478,0.0323zm7.1382,-0.1343c-0.7377,0 -1.2605,-0.14862 -1.5684,-0.44582c-0.3044,-0.29362 -0.4566,-0.80566 -0.4566,-1.53613l0,-3.28711l-1.6059,0l0,-0.76806l1.6059,0l0,-1.57374l0.9883,-0.42968l0,2.00342l2.2451,0l0,0.76806l-2.2451,0l0,3.28711c0,0.44043 0.0842,0.75016 0.2525,0.9292c0.1647,0.17546 0.4583,0.26318 0.8808,0.26318l1.1118,0l0,0.78957l-1.2084,0z" id="path1_fill"/>
 </defs>
 <g>
  <title>background</title>
  <rect fill="none" id="canvas_background" height="402" width="582" y="-1" x="-1"/>
 </g>
 <g>
  <title>Layer 1</title>
  <g id="Canvas">
   <g id="next">
    <g id="ic_arrow_back_white_24px">
     <g id="Vector">
      <use id="svg_1" x="-850" y="-780" fill="#ffffff" transform="matrix(-1,0,0,1,-814.5,780.263) " xlink:href="#path0_fill"/>
     </g>
    </g>
    <g id="Project">
     <use id="svg_2" x="-0.5" y="29.5" fill="#ffffff" xlink:href="#path1_fill"/>
    </g>
   </g>
  </g>
 </g>
</svg>