<svg width="45" height="42" viewBox="0 0 45 42" version="1.1" xmlns="http://www.w3.org/2000/svg" xmlns:xlink="http://www.w3.org/1999/xlink" xmlns:figma="http://www.figma.com/figma/ns">
<title>previous</title>
<desc>Created using Figma</desc>
<g id="Canvas" transform="translate(1140 -780)" figma:type="canvas">
<g id="previous" style="mix-blend-mode:normal;isolation:isolate;" figma:type="frame">
<g id="ic_arrow_back_white_24px" style="mix-blend-mode:overlay;" figma:type="frame">
<g id="Vector" style="mix-blend-mode:normal;" figma:type="vector">
<use xlink:href="#path0_fill" transform="translate(-1128.5 780)" fill="#7F7FBA" style="mix-blend-mode:normal;"/>
</g>
</g>
<g id="Project" style="mix-blend-mode:overlay;" figma:type="text">
<use xlink:href="#path1_fill" transform="translate(-1140.5 809)" fill="#7F7FBA" style="mix-blend-mode:normal;"/>
</g>
</g>
</g>
<defs>
<path id="path0_fill" d="M 24 10.5L 5.745 10.5L 14.13 2.115L 12 0L 0 12L 12 24L 14.115 21.885L 5.745 13.5L 24 13.5L 24 10.5Z"/>
<path id="path1_fill" d="M 0.923828 1.98096L 3.26562 1.98096C 4.15723 1.98096 4.83577 2.18327 5.30127 2.58789C 5.54118 2.79915 5.71663 3.05697 5.82764 3.36133C 5.93864 3.66211 5.99414 4.00228 5.99414 4.38184C 5.99414 5.1696 5.76497 5.76579 5.30664 6.17041C 5.08105 6.37093 4.79818 6.52311 4.45801 6.62695C 4.11784 6.72721 3.72038 6.77734 3.26562 6.77734L 2.00879 6.77734L 2.00879 10L 0.923828 10L 0.923828 1.98096ZM 3.26562 5.88574C 3.53418 5.88574 3.76514 5.84993 3.9585 5.77832C 4.15186 5.70671 4.31299 5.61003 4.44189 5.48828C 4.72119 5.22689 4.86084 4.85628 4.86084 4.37646C 4.86084 3.90023 4.72119 3.52962 4.44189 3.26465C 4.16618 3.00326 3.77409 2.87256 3.26562 2.87256L 2.00879 2.87256L 2.00879 5.88574L 3.26562 5.88574ZM 8.25 3.98438L 9.14697 3.98438L 9.24365 5.16064C 9.41195 4.73454 9.66618 4.4069 10.0063 4.17773C 10.3429 3.95215 10.7458 3.83936 11.2148 3.83936C 11.4583 3.83936 11.6875 3.86979 11.9023 3.93066C 12.0062 3.95931 12.11 3.9987 12.2139 4.04883C 12.3177 4.09538 12.4162 4.15088 12.5093 4.21533L 12.5093 5.2251C 12.3052 5.06038 12.0903 4.94043 11.8647 4.86523C 11.6427 4.79004 11.401 4.75244 11.1396 4.75244C 10.5273 4.75244 10.0583 4.9458 9.73242 5.33252C 9.40658 5.71566 9.24365 6.27425 9.24365 7.0083L 9.24365 10L 8.25 10L 8.25 3.98438ZM 16.5645 10.1558C 16.1527 10.1558 15.7856 10.0895 15.4634 9.95703C 15.1447 9.82096 14.8743 9.61865 14.6523 9.3501C 14.4268 9.0708 14.2603 8.73421 14.1528 8.34033C 14.0454 7.94287 13.9917 7.49349 13.9917 6.99219C 13.9917 5.97526 14.2119 5.19466 14.6523 4.65039C 15.0928 4.1097 15.7301 3.83936 16.5645 3.83936C 16.9941 3.83936 17.3665 3.90918 17.6816 4.04883C 18.0003 4.1849 18.2671 4.38542 18.4819 4.65039C 18.9224 5.19466 19.1426 5.97347 19.1426 6.98682C 19.1426 7.49886 19.0871 7.95361 18.9761 8.35107C 18.8687 8.74854 18.7039 9.08154 18.4819 9.3501C 18.2671 9.61507 17.9985 9.81559 17.6763 9.95166C 17.3576 10.0877 16.987 10.1558 16.5645 10.1558ZM 16.5645 9.31787C 17.0693 9.31787 17.4507 9.12093 17.7085 8.72705C 17.9663 8.33675 18.0952 7.76025 18.0952 6.99756C 18.0952 6.23486 17.9663 5.65658 17.7085 5.2627C 17.4507 4.8724 17.0693 4.67725 16.5645 4.67725C 16.0632 4.67725 15.6836 4.8724 15.4258 5.2627C 15.168 5.65658 15.0391 6.23486 15.0391 6.99756C 15.0391 7.76025 15.168 8.33675 15.4258 8.72705C 15.6836 9.12093 16.0632 9.31787 16.5645 9.31787ZM 23.3857 2.89404C 23.2783 2.89404 23.2246 2.84033 23.2246 2.73291L 23.2246 1.80371C 23.2246 1.69629 23.2783 1.64258 23.3857 1.64258L 24.1592 1.64258C 24.2666 1.64258 24.3203 1.69629 24.3203 1.80371L 24.3203 2.73291C 24.3203 2.84033 24.2666 2.89404 24.1592 2.89404L 23.3857 2.89404ZM 21.1621 11.4502L 22.4189 11.4502C 22.7412 11.4502 22.9829 11.3392 23.144 11.1172C 23.3052 10.8916 23.3857 10.555 23.3857 10.1074L 23.3857 4.75244L 21.6831 4.75244L 21.6831 3.98438L 24.374 3.98438L 24.374 10.1074C 24.374 10.4476 24.3346 10.7537 24.2559 11.0259C 24.1771 11.298 24.0571 11.5308 23.896 11.7241C 23.7349 11.9175 23.5379 12.0589 23.3052 12.1484C 23.076 12.2415 22.8164 12.2881 22.5264 12.2881L 21.1621 12.2881L 21.1621 11.4502ZM 30.1479 10.1558C 29.686 10.1558 29.2707 10.0859 28.9019 9.94629C 28.5366 9.80306 28.2251 9.59359 27.9673 9.31787C 27.7095 9.04215 27.5125 8.71094 27.3765 8.32422C 27.244 7.93392 27.1777 7.49349 27.1777 7.00293C 27.1777 6.49805 27.2458 6.05583 27.3818 5.67627C 27.5179 5.29313 27.7059 4.96729 27.9458 4.69873C 28.2072 4.40869 28.5133 4.19385 28.8643 4.0542C 29.2152 3.91097 29.5929 3.83936 29.9976 3.83936C 30.3986 3.83936 30.7495 3.9056 31.0503 4.03809C 31.3547 4.17057 31.6143 4.36214 31.8291 4.61279C 32.0439 4.86344 32.2069 5.16781 32.3179 5.52588C 32.4325 5.88037 32.4897 6.28678 32.4897 6.74512L 32.4897 7.22852L 28.209 7.22852L 28.209 7.26074C 28.209 7.91602 28.3809 8.42269 28.7246 8.78076C 28.8893 8.95264 29.0881 9.08512 29.3208 9.17822C 29.5571 9.27132 29.8382 9.31787 30.1641 9.31787C 30.4899 9.31787 30.8211 9.26774 31.1577 9.16748C 31.505 9.06364 31.8721 8.91146 32.2588 8.71094L 32.2588 9.69385C 32.069 9.77262 31.8846 9.84066 31.7056 9.89795C 31.5265 9.95524 31.3493 10.0036 31.1738 10.043C 31.002 10.0824 30.8301 10.111 30.6582 10.1289C 30.4863 10.1468 30.3162 10.1558 30.1479 10.1558ZM 31.5015 6.45508C 31.4943 6.14714 31.4531 5.88395 31.3779 5.66553C 31.3063 5.44352 31.2114 5.26449 31.0933 5.12842C 30.9644 4.97803 30.805 4.86523 30.6152 4.79004C 30.4255 4.71484 30.2124 4.67725 29.9761 4.67725C 29.4927 4.67725 29.0988 4.8348 28.7944 5.1499C 28.4865 5.46859 28.3039 5.90544 28.2466 6.46045L 31.5015 6.45508ZM 36.9639 10.1558C 36.5163 10.1558 36.1081 10.0859 35.7393 9.94629C 35.374 9.80306 35.0625 9.59359 34.8047 9.31787C 34.5433 9.03857 34.3464 8.70557 34.2139 8.31885C 34.085 7.92855 34.0205 7.48812 34.0205 6.99756C 34.0205 6.48551 34.0885 6.03613 34.2246 5.64941C 34.3643 5.2627 34.5594 4.93685 34.8101 4.67188C 35.075 4.39258 35.3883 4.1849 35.75 4.04883C 36.1152 3.90918 36.5216 3.83936 36.9692 3.83936C 37.134 3.83936 37.2861 3.84831 37.4258 3.86621C 37.5654 3.88411 37.7033 3.91276 37.8394 3.95215C 38.1115 4.02734 38.389 4.14372 38.6719 4.30127L 38.6719 5.33789C 38.5394 5.22331 38.4087 5.12305 38.2798 5.03711C 38.1509 4.95117 38.0202 4.88314 37.8877 4.83301C 37.6191 4.72917 37.3219 4.67725 36.9961 4.67725C 36.373 4.67725 35.895 4.87777 35.562 5.27881C 35.229 5.68343 35.0625 6.25456 35.0625 6.99219C 35.0625 7.33594 35.1001 7.65462 35.1753 7.94824C 35.2541 8.24186 35.383 8.49609 35.562 8.71094C 35.8986 9.11556 36.382 9.31787 37.0122 9.31787C 37.1912 9.31787 37.3542 9.30355 37.501 9.2749C 37.6514 9.24626 37.7892 9.20687 37.9146 9.15674C 38.0757 9.09587 38.2135 9.02604 38.3281 8.94727C 38.4463 8.86491 38.5609 8.77181 38.6719 8.66797L 38.6719 9.69385C 38.5501 9.76546 38.4176 9.83171 38.2744 9.89258C 38.1312 9.95345 37.9915 10.0036 37.8555 10.043C 37.7301 10.0788 37.5923 10.1056 37.4419 10.1235C 37.2951 10.145 37.1357 10.1558 36.9639 10.1558ZM 44.1021 10.0215C 43.3644 10.0215 42.8416 9.87288 42.5337 9.57568C 42.2293 9.28206 42.0771 8.77002 42.0771 8.03955L 42.0771 4.75244L 40.4712 4.75244L 40.4712 3.98438L 42.0771 3.98438L 42.0771 2.41064L 43.0654 1.98096L 43.0654 3.98438L 45.3105 3.98438L 45.3105 4.75244L 43.0654 4.75244L 43.0654 8.03955C 43.0654 8.47998 43.1496 8.78971 43.3179 8.96875C 43.4826 9.14421 43.7762 9.23193 44.1987 9.23193L 45.3105 9.23193L 45.3105 10.0215L 44.1021 10.0215Z"/>
</defs>
</svg>
