<svg width="26" height="42" viewBox="0 0 26 42" version="1.1" xmlns="http://www.w3.org/2000/svg" xmlns:xlink="http://www.w3.org/1999/xlink" xmlns:figma="http://www.figma.com/figma/ns">
<title>previous</title>
<desc>Created using Figma</desc>
<g id="Canvas" transform="translate(1130 -780)" figma:type="canvas">
<g id="previous" style="mix-blend-mode:normal;isolation:isolate;" figma:type="frame">
<g id="ic_arrow_back_white_24px" style="mix-blend-mode:overlay;" figma:type="frame">
<g id="Vector" style="mix-blend-mode:normal;" figma:type="vector">
<use xlink:href="#path0_fill" transform="translate(-1128.5 780)" fill="#7F7FBA" style="mix-blend-mode:normal;"/>
</g>
</g>
<g id="Page" style="mix-blend-mode:overlay;" figma:type="text">
<use xlink:href="#path1_fill" transform="translate(-1130 808.737)" fill="#7F7FBA" style="mix-blend-mode:normal;"/>
</g>
</g>
</g>
<defs>
<path id="path0_fill" d="M 24 10.5L 5.745 10.5L 14.13 2.115L 12 0L 0 12L 12 24L 14.115 21.885L 5.745 13.5L 24 13.5L 24 10.5Z"/>
<path id="path1_fill" d="M 0.923828 1.98096L 3.26562 1.98096C 4.15723 1.98096 4.83577 2.18327 5.30127 2.58789C 5.54118 2.79915 5.71663 3.05697 5.82764 3.36133C 5.93864 3.66211 5.99414 4.00228 5.99414 4.38184C 5.99414 5.1696 5.76497 5.76579 5.30664 6.17041C 5.08105 6.37093 4.79818 6.52311 4.45801 6.62695C 4.11784 6.72721 3.72038 6.77734 3.26562 6.77734L 2.00879 6.77734L 2.00879 10L 0.923828 10L 0.923828 1.98096ZM 3.26562 5.88574C 3.53418 5.88574 3.76514 5.84993 3.9585 5.77832C 4.15186 5.70671 4.31299 5.61003 4.44189 5.48828C 4.72119 5.22689 4.86084 4.85628 4.86084 4.37646C 4.86084 3.90023 4.72119 3.52962 4.44189 3.26465C 4.16618 3.00326 3.77409 2.87256 3.26562 2.87256L 2.00879 2.87256L 2.00879 5.88574L 3.26562 5.88574ZM 9.3833 10.1558C 8.76025 10.1558 8.2679 9.9821 7.90625 9.63477C 7.73438 9.47005 7.6001 9.27669 7.50342 9.05469C 7.40674 8.8291 7.3584 8.55876 7.3584 8.24365C 7.3584 7.58122 7.58398 7.07454 8.03516 6.72363C 8.47917 6.3763 9.13802 6.20264 10.0117 6.20264L 11.3384 6.20264L 11.3384 6.04688C 11.3384 5.81771 11.3079 5.61361 11.2471 5.43457C 11.1862 5.25553 11.0949 5.11051 10.9731 4.99951C 10.855 4.89209 10.6992 4.81152 10.5059 4.75781C 10.3125 4.7041 10.0869 4.67725 9.8291 4.67725C 9.48893 4.67725 9.14697 4.72559 8.80322 4.82227C 8.45589 4.91895 8.12109 5.06038 7.79883 5.24658L 7.79883 4.2583C 7.94922 4.20101 8.11572 4.14372 8.29834 4.08643C 8.48096 4.02913 8.66536 3.98079 8.85156 3.94141C 9.17741 3.87337 9.50505 3.83936 9.83447 3.83936C 10.0887 3.83936 10.3197 3.85905 10.5273 3.89844C 10.735 3.93424 10.9284 3.98975 11.1074 4.06494C 11.2721 4.13656 11.4279 4.22786 11.5747 4.33887C 11.7251 4.44629 11.8522 4.57161 11.9561 4.71484C 12.0312 4.81868 12.0921 4.9279 12.1387 5.04248C 12.1852 5.15706 12.221 5.26986 12.2461 5.38086C 12.3034 5.64225 12.332 6.03792 12.332 6.56787L 12.332 7.79785C 12.3392 8.00553 12.3446 8.18815 12.3481 8.3457C 12.3517 8.50326 12.3625 8.65007 12.3804 8.78613C 12.3983 8.93652 12.418 9.07796 12.4395 9.21045C 12.4645 9.34294 12.486 9.4432 12.5039 9.51123C 12.529 9.62223 12.5576 9.72786 12.5898 9.82812C 12.6221 9.9248 12.6418 9.9821 12.6489 10L 11.6553 10C 11.6374 9.95703 11.6141 9.89437 11.5854 9.81201C 11.5604 9.72607 11.5353 9.63298 11.5103 9.53271C 11.4924 9.45394 11.4744 9.37516 11.4565 9.29639C 11.4422 9.21403 11.4315 9.14421 11.4243 9.08691C 11.3205 9.26595 11.1862 9.42529 11.0215 9.56494C 10.8604 9.70459 10.701 9.81559 10.5435 9.89795C 10.3716 9.98747 10.189 10.0519 9.99561 10.0913C 9.80583 10.1343 9.60173 10.1558 9.3833 10.1558ZM 9.5874 9.32861C 10.1281 9.32861 10.5542 9.13883 10.8657 8.75928C 11.1808 8.37256 11.3384 7.85156 11.3384 7.19629L 11.3384 6.97607L 10.0869 6.97607C 9.514 6.97607 9.08073 7.07633 8.78711 7.27686C 8.63314 7.3807 8.52035 7.5096 8.44873 7.66357C 8.3807 7.81396 8.34668 7.98942 8.34668 8.18994C 8.34668 8.37614 8.37533 8.53906 8.43262 8.67871C 8.48991 8.81478 8.57048 8.93115 8.67432 9.02783C 8.77816 9.12093 8.90348 9.19434 9.05029 9.24805C 9.20068 9.30176 9.37972 9.32861 9.5874 9.32861ZM 16.4839 12.3633C 16.3442 12.3633 16.2046 12.3561 16.0649 12.3418C 15.9253 12.3311 15.7803 12.3132 15.6299 12.2881C 15.4831 12.263 15.3363 12.2326 15.1895 12.1968C 15.0462 12.161 14.8958 12.118 14.7383 12.0679L 14.7383 11.0903C 14.9137 11.1727 15.082 11.2443 15.2432 11.3052C 15.4079 11.366 15.5583 11.4162 15.6943 11.4556C 15.9736 11.5343 16.244 11.5737 16.5054 11.5737C 16.7703 11.5737 16.9959 11.5379 17.1821 11.4663C 17.3683 11.3947 17.5241 11.2837 17.6494 11.1333C 17.8929 10.8468 18.0146 10.3885 18.0146 9.7583L 18.0146 9.04395C 17.8607 9.37695 17.6458 9.6276 17.3701 9.7959C 17.098 9.96061 16.7686 10.043 16.3818 10.043C 15.6764 10.043 15.1143 9.76188 14.6953 9.19971C 14.2764 8.63753 14.0669 7.88558 14.0669 6.94385C 14.0669 6.00212 14.2764 5.24837 14.6953 4.68262C 14.9066 4.39974 15.1501 4.18848 15.4258 4.04883C 15.7051 3.90918 16.0256 3.83936 16.3872 3.83936C 16.5734 3.83936 16.7471 3.85905 16.9082 3.89844C 17.0729 3.93424 17.2233 3.99154 17.3594 4.07031C 17.6315 4.22786 17.8499 4.46598 18.0146 4.78467L 18.1113 4.00586L 19.0029 4.00586L 19.0029 9.61328C 19.0029 10.512 18.7899 11.196 18.3638 11.665C 17.9412 12.1305 17.3146 12.3633 16.4839 12.3633ZM 16.5967 9.22119C 17.0622 9.22119 17.4149 9.02604 17.6548 8.63574C 17.8947 8.24544 18.0146 7.68148 18.0146 6.94385C 18.0146 6.19906 17.8947 5.63509 17.6548 5.25195C 17.5295 5.04785 17.3755 4.90104 17.1929 4.81152C 17.0138 4.72201 16.8133 4.67725 16.5913 4.67725C 16.1115 4.67725 15.7445 4.86882 15.4902 5.25195C 15.236 5.63509 15.1089 6.20085 15.1089 6.94922C 15.1089 7.68327 15.2378 8.24544 15.4956 8.63574C 15.7534 9.02604 16.1204 9.22119 16.5967 9.22119ZM 23.52 10.1558C 23.0581 10.1558 22.6427 10.0859 22.2739 9.94629C 21.9087 9.80306 21.5972 9.59359 21.3394 9.31787C 21.0815 9.04215 20.8846 8.71094 20.7485 8.32422C 20.616 7.93392 20.5498 7.49349 20.5498 7.00293C 20.5498 6.49805 20.6178 6.05583 20.7539 5.67627C 20.89 5.29313 21.078 4.96729 21.3179 4.69873C 21.5793 4.40869 21.8854 4.19385 22.2363 4.0542C 22.5872 3.91097 22.965 3.83936 23.3696 3.83936C 23.7707 3.83936 24.1216 3.9056 24.4224 4.03809C 24.7267 4.17057 24.9863 4.36214 25.2012 4.61279C 25.416 4.86344 25.5789 5.16781 25.6899 5.52588C 25.8045 5.88037 25.8618 6.28678 25.8618 6.74512L 25.8618 7.22852L 21.5811 7.22852L 21.5811 7.26074C 21.5811 7.91602 21.7529 8.42269 22.0967 8.78076C 22.2614 8.95264 22.4601 9.08512 22.6929 9.17822C 22.9292 9.27132 23.2103 9.31787 23.5361 9.31787C 23.862 9.31787 24.1932 9.26774 24.5298 9.16748C 24.8771 9.06364 25.2441 8.91146 25.6309 8.71094L 25.6309 9.69385C 25.4411 9.77262 25.2567 9.84066 25.0776 9.89795C 24.8986 9.95524 24.7214 10.0036 24.5459 10.043C 24.374 10.0824 24.2021 10.111 24.0303 10.1289C 23.8584 10.1468 23.6883 10.1558 23.52 10.1558ZM 24.8735 6.45508C 24.8664 6.14714 24.8252 5.88395 24.75 5.66553C 24.6784 5.44352 24.5835 5.26449 24.4653 5.12842C 24.3364 4.97803 24.1771 4.86523 23.9873 4.79004C 23.7975 4.71484 23.5845 4.67725 23.3481 4.67725C 22.8647 4.67725 22.4709 4.8348 22.1665 5.1499C 21.8586 5.46859 21.6759 5.90544 21.6187 6.46045L 24.8735 6.45508Z"/>
</defs>
</svg>
