<?xml version="1.0" standalone="no"?>
<!DOCTYPE svg PUBLIC "-//W3C//DTD SVG 20010904//EN"
 "http://www.w3.org/TR/2001/REC-SVG-20010904/DTD/svg10.dtd">
<svg version="1.0" xmlns="http://www.w3.org/2000/svg"
 width="608.000000pt" height="608.000000pt" viewBox="0 0 608.000000 608.000000"
 preserveAspectRatio="xMidYMid meet">
<metadata>
Created by potrace 1.11, written by Peter Selinger 2001-2013
</metadata>
<g transform="translate(0.000000,608.000000) scale(0.100000,-0.100000)"
fill="#000000" stroke="none">
<path d="M2825 5419 c-755 -79 -1393 -470 -1809 -1107 -196 -302 -336 -709
-364 -1062 -12 -165 -4 -532 13 -560 2 -4 7 -27 10 -52 3 -24 13 -74 21 -109
8 -35 16 -73 18 -84 11 -51 47 -173 59 -205 8 -19 29 -73 47 -120 47 -120 208
-424 240 -450 3 -3 23 -30 45 -60 197 -276 505 -543 825 -713 486 -258 1073
-338 1630 -221 606 126 1162 508 1502 1029 85 131 138 223 138 241 0 7 5 14
10 14 6 0 10 5 10 11 0 6 16 44 35 85 71 150 158 453 180 629 4 28 10 79 15
115 13 98 4 460 -14 570 -28 170 -34 199 -71 325 -45 155 -127 354 -187 458
-15 26 -28 52 -28 57 0 6 -4 10 -10 10 -5 0 -10 5 -10 11 0 6 -30 56 -66 112
-310 473 -787 828 -1324 986 -286 84 -642 119 -915 90z"/>
</g>
</svg>
